<svg xmlns="http://www.w3.org/2000/svg" viewBox="0 0 652 724" fill="currentColor" role="img" aria-label="Panka">
<g transform="translate(-195.75,874) scale(0.1,-0.1)" stroke="none">
<path d="M3574 8438 c-411 -377 -598 -551 -602 -559 -4 -8 8 -11 178 -44 74
-14 135 -27 136 -28 1 -1 -47 -231 -107 -512 -138 -644 -247 -1159 -304 -1435
-24 -118 -65 -312 -90 -430 -25 -118 -68 -321 -95 -450 -27 -129 -97 -460
-155 -735 -58 -275 -137 -648 -175 -830 -70 -333 -163 -776 -310 -1477 -45
-211 -84 -395 -87 -410 l-5 -28 638 0 639 0 270 262 c149 144 314 305 367 358
l98 95 43 215 c24 118 104 504 177 858 l134 642 1226 0 1225 1 350 306 c321
280 703 609 766 658 25 20 35 64 229 1065 112 575 238 1223 280 1440 l78 395
-257 255 c-142 140 -349 353 -461 473 l-204 217 -1827 0 -1826 0 -329 -302z
m2356 -695 c245 -40 487 -159 690 -337 236 -208 394 -488 456 -806 27 -141 25
-390 -5 -530 -64 -299 -187 -527 -396 -735 -220 -219 -482 -354 -780 -400
-152 -24 -387 -16 -535 19 -543 126 -962 559 -1082 1119 -29 135 -31 389 -5
517 42 202 120 391 228 554 66 101 220 260 328 341 309 232 701 324 1101 258z"/>
<path d="M5470 7535 c-433 -73 -795 -377 -939 -787 -202 -579 56 -1210 609
-1490 161 -82 329 -121 530 -121 212 -1 356 32 545 124 330 160 569 471 651
846 24 112 24 368 0 483 -61 286 -227 546 -458 721 -150 112 -368 203 -552
228 -101 14 -291 12 -386 -4z m-24 -252 l164 -88 0 -155 0 -155 -200 -144
-200 -143 -143 42 -143 42 -39 181 c-21 100 -40 188 -43 195 -6 16 89 106 183
174 57 41 235 138 253 138 3 0 79 -39 168 -87z m739 33 c92 -47 209 -133 277
-203 l47 -48 -41 -190 c-22 -104 -42 -192 -44 -194 -4 -4 -273 -81 -284 -81
-11 0 -384 270 -398 288 -14 18 -17 278 -3 300 4 6 78 49 166 96 110 59 166
84 180 80 11 -4 56 -25 100 -48z m-1147 -792 c70 -20 131 -40 136 -44 11 -11
146 -440 146 -465 0 -11 -38 -72 -83 -135 l-83 -115 -100 1 c-54 0 -148 4
-208 8 l-108 8 -38 82 c-45 95 -83 219 -100 329 l-13 79 144 144 c79 79 152
144 162 144 10 0 75 -16 145 -36z m1576 -107 l149 -143 -12 -79 c-18 -112 -54
-229 -99 -328 l-39 -84 -84 -6 c-46 -4 -140 -9 -209 -13 l-125 -6 -88 126 -88
126 72 227 c39 126 75 232 80 238 10 10 243 82 274 84 13 1 72 -49 169 -142z
m-604 -598 c47 -66 84 -126 82 -132 -2 -7 -37 -98 -79 -204 l-76 -192 -71 -13
c-94 -16 -271 -16 -373 1 l-82 13 -81 197 c-95 226 -97 186 20 351 l71 100
252 0 253 0 84 -121z"/>
</g>
</svg>
