<?xml version="1.0" encoding="UTF-8"?>
<svg id="Layer_1" xmlns="http://www.w3.org/2000/svg" version="1.1" viewBox="0 0 1222.9 302.5">
  <!-- Generator: Adobe Illustrator 30.6.0, SVG Export Plug-In . SVG Version: 2.1.4 Build 109)  -->
  <defs>
    <style>
      .st0 {
        fill: #1a1f1b;
      }
    </style>
  </defs>
  <path class="st0" d="M199.6,46.5c-9-14.5-21.8-25.9-38.6-34.1C144.3,4.1,124.3,0,101,0H0v298.3h61.8v-104.8h39.2c23.3,0,43.3-4.1,60.1-12.4,16.8-8.2,29.6-19.6,38.6-34.1,9-14.5,13.4-31.2,13.4-50.3s-4.5-35.8-13.4-50.3ZM144.5,117.2c-3.7,6.2-9.3,11.2-16.8,14.7-7.5,3.6-16.7,5.3-27.5,5.3h-38.3V56.2h38.3c10.8,0,20,1.8,27.5,5.3,7.5,3.5,13.1,8.5,16.8,14.7,3.7,6.2,5.5,13.1,5.5,20.5s-1.9,14.2-5.5,20.5Z"/>
  <path class="st0" d="M392,80.1v21.9c-3.9-4.2-8-7.8-12.4-10.8-7.7-5.4-16.2-9.4-25.6-12.1-9.4-2.7-20-4.1-32-4.1-18.5,0-36.1,4.8-52.8,14.5-16.8,9.7-30.3,23.1-40.7,40.5-10.4,17.3-15.6,36.9-15.6,58.8s5.2,41.5,15.6,58.8c10.4,17.3,23.9,30.8,40.7,40.5,16.8,9.6,34.4,14.5,52.8,14.5s33.1-3.1,45.6-9.2c8.9-4.3,17-10.4,24.3-18.3v22.4h55.8V80.1h-55.8ZM383.9,219.4c-5.1,9.1-12.3,16.3-21.5,21.5-9.2,5.3-19.4,7.9-30.5,7.9s-21.7-2.6-30.9-7.9c-9.2-5.2-16.5-12.4-21.7-21.5-5.3-9.1-7.9-19.3-7.9-30.7s2.6-21.2,7.9-30.5c5.3-9.2,12.5-16.5,21.7-21.7,9.2-5.2,19.5-7.9,30.9-7.9s21.2,2.6,30.5,7.9c9.2,5.3,16.4,12.5,21.5,21.7,5.1,9.2,7.7,19.4,7.7,30.5s-2.6,21.6-7.7,30.7Z"/>
  <path class="st0" d="M674.6,169.2v129.1h-58.4v-118c0-10.2-1.7-19.2-5.1-26.8-3.4-7.7-8.5-13.6-15.3-17.7-6.8-4.1-14.9-6.2-24.3-6.2s-16.9,2.1-24.3,6.4c-7.4,4.3-13.1,10.2-17,17.9-4,7.7-6,16.5-6,26.4v118h-58.4V81h55.8v21.8c3.8-3.9,7.7-7.3,11.9-10.3,7.7-5.4,15.8-9.5,24.5-12.4,8.7-2.8,18-4.3,27.9-4.3,17.3,0,32.7,4.1,46,12.2,13.4,8.1,23.8,19.2,31.3,33.4,7.5,14.2,11.3,30.1,11.3,47.7Z"/>
  <path class="st0" d="M1167.1,80.1v21.9c-3.9-4.2-8-7.8-12.4-10.8-7.7-5.4-16.2-9.4-25.6-12.1-9.4-2.7-20-4.1-32-4.1-18.5,0-36.1,4.8-52.8,14.5-16.8,9.7-30.3,23.1-40.7,40.5-10.4,17.3-15.6,36.9-15.6,58.8s5.2,41.5,15.6,58.8c10.4,17.3,23.9,30.8,40.7,40.5,16.8,9.6,34.4,14.5,52.8,14.5s33.1-3.1,45.6-9.2c8.9-4.3,17-10.4,24.3-18.3v22.4h55.8V80.1h-55.8ZM1159,219.4c-5.1,9.1-12.3,16.3-21.5,21.5-9.2,5.3-19.4,7.9-30.5,7.9s-21.7-2.6-30.9-7.9c-9.2-5.2-16.5-12.4-21.7-21.5-5.3-9.1-7.9-19.3-7.9-30.7s2.6-21.2,7.9-30.5c5.3-9.2,12.5-16.5,21.7-21.7,9.2-5.2,19.5-7.9,30.9-7.9s21.2,2.6,30.5,7.9c9.2,5.3,16.4,12.5,21.5,21.7,5.1,9.2,7.7,19.4,7.7,30.5s-2.6,21.6-7.7,30.7Z"/>
  <path class="st0" d="M928,147.7l49.4,150.5h-64.2l-34.6-105.5c-4.7-14.3-20.1-22.1-34.5-17.4l-74,24.3c-11.2,3.7-18.8,14.1-18.8,26v72.4h-61V.7h61v103.2c0,18.6,18.2,31.8,35.8,26l64-21,58-19,62.5-20.5,19,58-62.5,20.5Z"/>
  <polygon class="st0" points="689 294.9 690.2 294.5 690.2 298.3 689 294.9"/>
</svg>